<?xml version='1.0' encoding='utf-8'?>
<svg xmlns="http://www.w3.org/2000/svg" xmlns:xlink="http://www.w3.org/1999/xlink" id="chart-fd33f490-c981-4e75-beea-b0da103a7f11" class="pygal-chart" viewBox="0 0 800 600"><!--Generated with pygal 3.0.5 (lxml) ©Kozea 2012-2016 on 2024-12-26--><!--http://pygal.org--><!--http://github.com/Kozea/pygal--><defs><style type="text/css">#chart-fd33f490-c981-4e75-beea-b0da103a7f11{-webkit-user-select:none;-webkit-font-smoothing:antialiased;font-family:Consolas,"Liberation Mono",Menlo,Courier,monospace}#chart-fd33f490-c981-4e75-beea-b0da103a7f11 .title{font-family:Consolas,"Liberation Mono",Menlo,Courier,monospace;font-size:16px}#chart-fd33f490-c981-4e75-beea-b0da103a7f11 .legends .legend text{font-family:Consolas,"Liberation Mono",Menlo,Courier,monospace;font-size:14px}#chart-fd33f490-c981-4e75-beea-b0da103a7f11 .axis text{font-family:Consolas,"Liberation Mono",Menlo,Courier,monospace;font-size:10px}#chart-fd33f490-c981-4e75-beea-b0da103a7f11 .axis text.major{font-family:Consolas,"Liberation Mono",Menlo,Courier,monospace;font-size:10px}#chart-fd33f490-c981-4e75-beea-b0da103a7f11 .text-overlay text.value{font-family:Consolas,"Liberation Mono",Menlo,Courier,monospace;font-size:16px}#chart-fd33f490-c981-4e75-beea-b0da103a7f11 .text-overlay text.label{font-family:Consolas,"Liberation Mono",Menlo,Courier,monospace;font-size:10px}#chart-fd33f490-c981-4e75-beea-b0da103a7f11 .tooltip{font-family:Consolas,"Liberation Mono",Menlo,Courier,monospace;font-size:14px}#chart-fd33f490-c981-4e75-beea-b0da103a7f11 text.no_data{font-family:Consolas,"Liberation Mono",Menlo,Courier,monospace;font-size:64px}
#chart-fd33f490-c981-4e75-beea-b0da103a7f11{background-color:rgba(249,249,249,1)}#chart-fd33f490-c981-4e75-beea-b0da103a7f11 path,#chart-fd33f490-c981-4e75-beea-b0da103a7f11 line,#chart-fd33f490-c981-4e75-beea-b0da103a7f11 rect,#chart-fd33f490-c981-4e75-beea-b0da103a7f11 circle{-webkit-transition:150ms;-moz-transition:150ms;transition:150ms}#chart-fd33f490-c981-4e75-beea-b0da103a7f11 .graph &gt; .background{fill:rgba(249,249,249,1)}#chart-fd33f490-c981-4e75-beea-b0da103a7f11 .plot &gt; .background{fill:rgba(255,255,255,1)}#chart-fd33f490-c981-4e75-beea-b0da103a7f11 .graph{fill:rgba(0,0,0,.87)}#chart-fd33f490-c981-4e75-beea-b0da103a7f11 text.no_data{fill:rgba(0,0,0,1)}#chart-fd33f490-c981-4e75-beea-b0da103a7f11 .title{fill:rgba(0,0,0,1)}#chart-fd33f490-c981-4e75-beea-b0da103a7f11 .legends .legend text{fill:rgba(0,0,0,.87)}#chart-fd33f490-c981-4e75-beea-b0da103a7f11 .legends .legend:hover text{fill:rgba(0,0,0,1)}#chart-fd33f490-c981-4e75-beea-b0da103a7f11 .axis .line{stroke:rgba(0,0,0,1)}#chart-fd33f490-c981-4e75-beea-b0da103a7f11 .axis .guide.line{stroke:rgba(0,0,0,.54)}#chart-fd33f490-c981-4e75-beea-b0da103a7f11 .axis .major.line{stroke:rgba(0,0,0,.87)}#chart-fd33f490-c981-4e75-beea-b0da103a7f11 .axis text.major{fill:rgba(0,0,0,1)}#chart-fd33f490-c981-4e75-beea-b0da103a7f11 .axis.y .guides:hover .guide.line,#chart-fd33f490-c981-4e75-beea-b0da103a7f11 .line-graph .axis.x .guides:hover .guide.line,#chart-fd33f490-c981-4e75-beea-b0da103a7f11 .stackedline-graph .axis.x .guides:hover .guide.line,#chart-fd33f490-c981-4e75-beea-b0da103a7f11 .xy-graph .axis.x .guides:hover .guide.line{stroke:rgba(0,0,0,1)}#chart-fd33f490-c981-4e75-beea-b0da103a7f11 .axis .guides:hover text{fill:rgba(0,0,0,1)}#chart-fd33f490-c981-4e75-beea-b0da103a7f11 .reactive{fill-opacity:.7;stroke-opacity:.8;stroke-width:1}#chart-fd33f490-c981-4e75-beea-b0da103a7f11 .ci{stroke:rgba(0,0,0,.87)}#chart-fd33f490-c981-4e75-beea-b0da103a7f11 .reactive.active,#chart-fd33f490-c981-4e75-beea-b0da103a7f11 .active .reactive{fill-opacity:.8;stroke-opacity:.9;stroke-width:4}#chart-fd33f490-c981-4e75-beea-b0da103a7f11 .ci .reactive.active{stroke-width:1.5}#chart-fd33f490-c981-4e75-beea-b0da103a7f11 .series text{fill:rgba(0,0,0,1)}#chart-fd33f490-c981-4e75-beea-b0da103a7f11 .tooltip rect{fill:rgba(255,255,255,1);stroke:rgba(0,0,0,1);-webkit-transition:opacity 150ms;-moz-transition:opacity 150ms;transition:opacity 150ms}#chart-fd33f490-c981-4e75-beea-b0da103a7f11 .tooltip .label{fill:rgba(0,0,0,.87)}#chart-fd33f490-c981-4e75-beea-b0da103a7f11 .tooltip .label{fill:rgba(0,0,0,.87)}#chart-fd33f490-c981-4e75-beea-b0da103a7f11 .tooltip .legend{font-size:.8em;fill:rgba(0,0,0,.54)}#chart-fd33f490-c981-4e75-beea-b0da103a7f11 .tooltip .x_label{font-size:.6em;fill:rgba(0,0,0,1)}#chart-fd33f490-c981-4e75-beea-b0da103a7f11 .tooltip .xlink{font-size:.5em;text-decoration:underline}#chart-fd33f490-c981-4e75-beea-b0da103a7f11 .tooltip .value{font-size:1.5em}#chart-fd33f490-c981-4e75-beea-b0da103a7f11 .bound{font-size:.5em}#chart-fd33f490-c981-4e75-beea-b0da103a7f11 .max-value{font-size:.75em;fill:rgba(0,0,0,.54)}#chart-fd33f490-c981-4e75-beea-b0da103a7f11 .map-element{fill:rgba(255,255,255,1);stroke:rgba(0,0,0,.54) !important}#chart-fd33f490-c981-4e75-beea-b0da103a7f11 .map-element .reactive{fill-opacity:inherit;stroke-opacity:inherit}#chart-fd33f490-c981-4e75-beea-b0da103a7f11 .color-0,#chart-fd33f490-c981-4e75-beea-b0da103a7f11 .color-0 a:visited{stroke:#F44336;fill:#F44336}#chart-fd33f490-c981-4e75-beea-b0da103a7f11 .color-1,#chart-fd33f490-c981-4e75-beea-b0da103a7f11 .color-1 a:visited{stroke:#3F51B5;fill:#3F51B5}#chart-fd33f490-c981-4e75-beea-b0da103a7f11 .color-2,#chart-fd33f490-c981-4e75-beea-b0da103a7f11 .color-2 a:visited{stroke:#009688;fill:#009688}#chart-fd33f490-c981-4e75-beea-b0da103a7f11 .color-3,#chart-fd33f490-c981-4e75-beea-b0da103a7f11 .color-3 a:visited{stroke:#FFC107;fill:#FFC107}#chart-fd33f490-c981-4e75-beea-b0da103a7f11 .color-4,#chart-fd33f490-c981-4e75-beea-b0da103a7f11 .color-4 a:visited{stroke:#FF5722;fill:#FF5722}#chart-fd33f490-c981-4e75-beea-b0da103a7f11 .color-5,#chart-fd33f490-c981-4e75-beea-b0da103a7f11 .color-5 a:visited{stroke:#9C27B0;fill:#9C27B0}#chart-fd33f490-c981-4e75-beea-b0da103a7f11 .color-6,#chart-fd33f490-c981-4e75-beea-b0da103a7f11 .color-6 a:visited{stroke:#03A9F4;fill:#03A9F4}#chart-fd33f490-c981-4e75-beea-b0da103a7f11 .color-7,#chart-fd33f490-c981-4e75-beea-b0da103a7f11 .color-7 a:visited{stroke:#8BC34A;fill:#8BC34A}#chart-fd33f490-c981-4e75-beea-b0da103a7f11 .color-8,#chart-fd33f490-c981-4e75-beea-b0da103a7f11 .color-8 a:visited{stroke:#FF9800;fill:#FF9800}#chart-fd33f490-c981-4e75-beea-b0da103a7f11 .color-9,#chart-fd33f490-c981-4e75-beea-b0da103a7f11 .color-9 a:visited{stroke:#E91E63;fill:#E91E63}#chart-fd33f490-c981-4e75-beea-b0da103a7f11 .color-10,#chart-fd33f490-c981-4e75-beea-b0da103a7f11 .color-10 a:visited{stroke:#2196F3;fill:#2196F3}#chart-fd33f490-c981-4e75-beea-b0da103a7f11 .color-11,#chart-fd33f490-c981-4e75-beea-b0da103a7f11 .color-11 a:visited{stroke:#4CAF50;fill:#4CAF50}#chart-fd33f490-c981-4e75-beea-b0da103a7f11 .text-overlay .color-0 text{fill:black}#chart-fd33f490-c981-4e75-beea-b0da103a7f11 .text-overlay .color-1 text{fill:black}#chart-fd33f490-c981-4e75-beea-b0da103a7f11 .text-overlay .color-2 text{fill:black}#chart-fd33f490-c981-4e75-beea-b0da103a7f11 .text-overlay .color-3 text{fill:black}#chart-fd33f490-c981-4e75-beea-b0da103a7f11 .text-overlay .color-4 text{fill:black}#chart-fd33f490-c981-4e75-beea-b0da103a7f11 .text-overlay .color-5 text{fill:black}#chart-fd33f490-c981-4e75-beea-b0da103a7f11 .text-overlay .color-6 text{fill:black}#chart-fd33f490-c981-4e75-beea-b0da103a7f11 .text-overlay .color-7 text{fill:black}#chart-fd33f490-c981-4e75-beea-b0da103a7f11 .text-overlay .color-8 text{fill:black}#chart-fd33f490-c981-4e75-beea-b0da103a7f11 .text-overlay .color-9 text{fill:black}#chart-fd33f490-c981-4e75-beea-b0da103a7f11 .text-overlay .color-10 text{fill:black}#chart-fd33f490-c981-4e75-beea-b0da103a7f11 .text-overlay .color-11 text{fill:black}
#chart-fd33f490-c981-4e75-beea-b0da103a7f11 text.no_data{text-anchor:middle}#chart-fd33f490-c981-4e75-beea-b0da103a7f11 .guide.line{fill:none}#chart-fd33f490-c981-4e75-beea-b0da103a7f11 .centered{text-anchor:middle}#chart-fd33f490-c981-4e75-beea-b0da103a7f11 .title{text-anchor:middle}#chart-fd33f490-c981-4e75-beea-b0da103a7f11 .legends .legend text{fill-opacity:1}#chart-fd33f490-c981-4e75-beea-b0da103a7f11 .axis.x text{text-anchor:middle}#chart-fd33f490-c981-4e75-beea-b0da103a7f11 .axis.x:not(.web) text[transform]{text-anchor:start}#chart-fd33f490-c981-4e75-beea-b0da103a7f11 .axis.x:not(.web) text[transform].backwards{text-anchor:end}#chart-fd33f490-c981-4e75-beea-b0da103a7f11 .axis.y text{text-anchor:end}#chart-fd33f490-c981-4e75-beea-b0da103a7f11 .axis.y text[transform].backwards{text-anchor:start}#chart-fd33f490-c981-4e75-beea-b0da103a7f11 .axis.y2 text{text-anchor:start}#chart-fd33f490-c981-4e75-beea-b0da103a7f11 .axis.y2 text[transform].backwards{text-anchor:end}#chart-fd33f490-c981-4e75-beea-b0da103a7f11 .axis .guide.line{stroke-dasharray:4,4;stroke:black}#chart-fd33f490-c981-4e75-beea-b0da103a7f11 .axis .major.guide.line{stroke-dasharray:6,6;stroke:black}#chart-fd33f490-c981-4e75-beea-b0da103a7f11 .horizontal .axis.y .guide.line,#chart-fd33f490-c981-4e75-beea-b0da103a7f11 .horizontal .axis.y2 .guide.line,#chart-fd33f490-c981-4e75-beea-b0da103a7f11 .vertical .axis.x .guide.line{opacity:0}#chart-fd33f490-c981-4e75-beea-b0da103a7f11 .horizontal .axis.always_show .guide.line,#chart-fd33f490-c981-4e75-beea-b0da103a7f11 .vertical .axis.always_show .guide.line{opacity:1 !important}#chart-fd33f490-c981-4e75-beea-b0da103a7f11 .axis.y .guides:hover .guide.line,#chart-fd33f490-c981-4e75-beea-b0da103a7f11 .axis.y2 .guides:hover .guide.line,#chart-fd33f490-c981-4e75-beea-b0da103a7f11 .axis.x .guides:hover .guide.line{opacity:1}#chart-fd33f490-c981-4e75-beea-b0da103a7f11 .axis .guides:hover text{opacity:1}#chart-fd33f490-c981-4e75-beea-b0da103a7f11 .nofill{fill:none}#chart-fd33f490-c981-4e75-beea-b0da103a7f11 .subtle-fill{fill-opacity:.2}#chart-fd33f490-c981-4e75-beea-b0da103a7f11 .dot{stroke-width:1px;fill-opacity:1;stroke-opacity:1}#chart-fd33f490-c981-4e75-beea-b0da103a7f11 .dot.active{stroke-width:5px}#chart-fd33f490-c981-4e75-beea-b0da103a7f11 .dot.negative{fill:transparent}#chart-fd33f490-c981-4e75-beea-b0da103a7f11 text,#chart-fd33f490-c981-4e75-beea-b0da103a7f11 tspan{stroke:none !important}#chart-fd33f490-c981-4e75-beea-b0da103a7f11 .series text.active{opacity:1}#chart-fd33f490-c981-4e75-beea-b0da103a7f11 .tooltip rect{fill-opacity:.95;stroke-width:.5}#chart-fd33f490-c981-4e75-beea-b0da103a7f11 .tooltip text{fill-opacity:1}#chart-fd33f490-c981-4e75-beea-b0da103a7f11 .showable{visibility:hidden}#chart-fd33f490-c981-4e75-beea-b0da103a7f11 .showable.shown{visibility:visible}#chart-fd33f490-c981-4e75-beea-b0da103a7f11 .gauge-background{fill:rgba(229,229,229,1);stroke:none}#chart-fd33f490-c981-4e75-beea-b0da103a7f11 .bg-lines{stroke:rgba(249,249,249,1);stroke-width:2px}</style><script type="text/javascript">window.pygal = window.pygal || {};window.pygal.config = window.pygal.config || {};window.pygal.config['fd33f490-c981-4e75-beea-b0da103a7f11'] = {"allow_interruptions": false, "box_mode": "extremes", "classes": ["pygal-chart"], "css": ["file://style.css", "file://graph.css"], "defs": [], "disable_xml_declaration": false, "dots_size": 2.5, "dynamic_print_values": false, "explicit_size": false, "fill": false, "force_uri_protocol": "https", "formatter": null, "half_pie": false, "height": 600, "include_x_axis": false, "inner_radius": 0, "interpolate": null, "interpolation_parameters": {}, "interpolation_precision": 250, "inverse_y_axis": false, "js": ["//kozea.github.io/pygal.js/2.0.x/pygal-tooltips.min.js"], "legend_at_bottom": false, "legend_at_bottom_columns": null, "legend_box_size": 12, "logarithmic": false, "margin": 20, "margin_bottom": null, "margin_left": null, "margin_right": null, "margin_top": null, "max_scale": 16, "min_scale": 4, "missing_value_fill_truncation": "x", "no_data_text": "No data", "no_prefix": false, "order_min": null, "pretty_print": false, "print_labels": false, "print_values": false, "print_values_position": "center", "print_zeroes": true, "range": null, "rounded_bars": null, "secondary_range": null, "show_dots": true, "show_legend": true, "show_minor_x_labels": true, "show_minor_y_labels": true, "show_only_major_dots": false, "show_x_guides": false, "show_x_labels": true, "show_y_guides": true, "show_y_labels": true, "spacing": 10, "stack_from_top": false, "strict": false, "stroke": true, "stroke_style": null, "style": {"background": "rgba(249, 249, 249, 1)", "ci_colors": [], "colors": ["#F44336", "#3F51B5", "#009688", "#FFC107", "#FF5722", "#9C27B0", "#03A9F4", "#8BC34A", "#FF9800", "#E91E63", "#2196F3", "#4CAF50", "#FFEB3B", "#673AB7", "#00BCD4", "#CDDC39", "#9E9E9E", "#607D8B"], "dot_opacity": "1", "font_family": "Consolas, \"Liberation Mono\", Menlo, Courier, monospace", "foreground": "rgba(0, 0, 0, .87)", "foreground_strong": "rgba(0, 0, 0, 1)", "foreground_subtle": "rgba(0, 0, 0, .54)", "guide_stroke_color": "black", "guide_stroke_dasharray": "4,4", "label_font_family": "Consolas, \"Liberation Mono\", Menlo, Courier, monospace", "label_font_size": 10, "legend_font_family": "Consolas, \"Liberation Mono\", Menlo, Courier, monospace", "legend_font_size": 14, "major_guide_stroke_color": "black", "major_guide_stroke_dasharray": "6,6", "major_label_font_family": "Consolas, \"Liberation Mono\", Menlo, Courier, monospace", "major_label_font_size": 10, "no_data_font_family": "Consolas, \"Liberation Mono\", Menlo, Courier, monospace", "no_data_font_size": 64, "opacity": ".7", "opacity_hover": ".8", "plot_background": "rgba(255, 255, 255, 1)", "stroke_opacity": ".8", "stroke_opacity_hover": ".9", "stroke_width": "1", "stroke_width_hover": "4", "title_font_family": "Consolas, \"Liberation Mono\", Menlo, Courier, monospace", "title_font_size": 16, "tooltip_font_family": "Consolas, \"Liberation Mono\", Menlo, Courier, monospace", "tooltip_font_size": 14, "transition": "150ms", "value_background": "rgba(229, 229, 229, 1)", "value_colors": [], "value_font_family": "Consolas, \"Liberation Mono\", Menlo, Courier, monospace", "value_font_size": 16, "value_label_font_family": "Consolas, \"Liberation Mono\", Menlo, Courier, monospace", "value_label_font_size": 10}, "title": "Pie Chart Example", "tooltip_border_radius": 0, "tooltip_fancy_mode": true, "truncate_label": null, "truncate_legend": null, "width": 800, "x_label_rotation": 0, "x_labels": null, "x_labels_major": null, "x_labels_major_count": null, "x_labels_major_every": null, "x_title": null, "xrange": null, "y_label_rotation": 0, "y_labels": null, "y_labels_major": null, "y_labels_major_count": null, "y_labels_major_every": null, "y_title": null, "zero": 0, "legends": ["Dance/Electronic", "Folk/Acoustic", "R&amp;B", "World/Traditional", "country", "easy listening", "hip hop", "latin", "metal", "pop", "rock", "set()"]}</script><script type="text/javascript" xlink:href="https://kozea.github.io/pygal.js/2.0.x/pygal-tooltips.min.js"/></defs><title>Pie Chart Example</title><g class="graph pie-graph vertical"><rect x="0" y="0" width="800" height="600" class="background"/><g transform="translate(168, 46)" class="plot"><rect x="0" y="0" width="612.0" height="534" class="background"/><g class="series serie-0 color-0"><g class="slices"><g class="slice"><path d="M306.000000 0.000000 A267.000000 267.000000 0 0 1 351.849300 3.966083 L347.264370 30.269474 A240.300000 240.300000 0 0 0 306.000000 26.700000 z" class="slice reactive tooltip-trigger"/><desc class="value">0.171152439</desc><desc class="x centered">327.8597464952775</desc><desc class="y centered">14.29370015141646</desc></g><g class="slice"><path d="M351.849300 3.966083 A267.000000 267.000000 0 0 1 402.089546 17.889986 L392.480591 42.800987 A240.300000 240.300000 0 0 0 347.264370 30.269474 z" class="slice reactive tooltip-trigger"/><desc class="value">0.1939573171</desc><desc class="x centered">373.74457773586767</desc><desc class="y centered">22.563925151402856</desc></g><g class="slice"><path d="M402.089546 17.889986 A267.000000 267.000000 0 0 1 413.483211 22.589772 L402.734890 47.030795 A240.300000 240.300000 0 0 0 392.480591 42.800987 z" class="slice reactive tooltip-trigger"/><desc class="value">0.04578414634</desc><desc class="x centered">402.72282501592946</desc><desc class="y centered">32.515421357953926</desc></g><g class="slice"><path d="M413.483211 22.589772 A267.000000 267.000000 0 0 1 444.713237 38.860486 L430.841914 61.674438 A240.300000 240.300000 0 0 0 402.734890 47.030795 z" class="slice reactive tooltip-trigger"/><desc class="value">0.1308963415</desc><desc class="x centered">423.19841948661514</desc><desc class="y centered">42.0492210063735</desc></g><g class="big_slice"><path d="M306.000000 26.700000 A240.300000 240.300000 0 0 1 430.841914 61.674438 L306.000000 267.000000 A0.000000 0.000000 0 0 0 306.000000 267.000000 z" class="slice reactive tooltip-trigger"/><desc class="value">0.5417902439</desc><desc class="x centered">338.4121068267067</desc><desc class="y centered">151.3043741922187</desc></g></g></g><g class="series serie-1 color-1"><g class="slices"><g class="slice"><path d="M444.713237 38.860486 A267.000000 267.000000 0 0 1 472.961913 58.642808 L456.265722 79.478527 A240.300000 240.300000 0 0 0 430.841914 61.674438 z" class="slice reactive tooltip-trigger"/><desc class="value">0.1281875</desc><desc class="x centered">451.4994378208929</desc><desc class="y centered">59.23032922535563</desc></g><g class="slice"><path d="M472.961913 58.642808 A267.000000 267.000000 0 0 1 507.276583 91.567001 L487.148925 109.110301 A240.300000 240.300000 0 0 0 456.265722 79.478527 z" class="slice reactive tooltip-trigger"/><desc class="value">0.176875</desc><desc class="x centered">481.6110348949508</desc><desc class="y centered">83.9724421757085</desc></g><g class="slice"><path d="M507.276583 91.567001 A267.000000 267.000000 0 0 1 517.148254 103.582086 L496.033429 119.923877 A240.300000 240.300000 0 0 0 487.148925 109.110301 z" class="slice reactive tooltip-trigger"/><desc class="value">0.05776875</desc><desc class="x centered">501.9849129850086</desc><desc class="y centered">105.9775283314201</desc></g><g class="slice"><path d="M517.148254 103.582086 A267.000000 267.000000 0 0 1 534.184098 128.360117 L511.365688 142.224105 A240.300000 240.300000 0 0 0 496.033429 119.923877 z" class="slice reactive tooltip-trigger"/><desc class="value">0.11175</desc><desc class="x centered">515.0145014651653</desc><desc class="y centered">123.29453497772454</desc></g><g class="big_slice"><path d="M430.841914 61.674438 A240.300000 240.300000 0 0 1 511.365688 142.224105 L306.000000 267.000000 A0.000000 0.000000 0 0 0 306.000000 267.000000 z" class="slice reactive tooltip-trigger"/><desc class="value">0.47458125</desc><desc class="x centered">390.9725357910611</desc><desc class="y centered">182.05477846731554</desc></g></g></g><g class="series serie-2 color-2"><g class="slices"><g class="slice"><path d="M534.184098 128.360117 A267.000000 267.000000 0 0 1 554.079115 168.279422 L529.271204 178.151479 A240.300000 240.300000 0 0 0 511.365688 142.224105 z" class="slice reactive tooltip-trigger"/><desc class="value">0.1658653846</desc><desc class="x centered">533.0182977211323</desc><desc class="y centered">153.85842939131817</desc></g><g class="slice"><path d="M554.079115 168.279422 A267.000000 267.000000 0 0 1 567.394076 212.574480 L541.254668 218.017032 A240.300000 240.300000 0 0 0 529.271204 178.151479 z" class="slice reactive tooltip-trigger"/><desc class="value">0.1720192308</desc><desc class="x centered">548.9126892875379</desc><desc class="y centered">193.98118130854158</desc></g><g class="slice"><path d="M567.394076 212.574480 A267.000000 267.000000 0 0 1 569.356702 223.042661 L543.021032 227.438395 A240.300000 240.300000 0 0 0 541.254668 218.017032 z" class="slice reactive tooltip-trigger"/><desc class="value">0.03956346154</desc><desc class="x centered">555.3062110212633</desc><desc class="y centered">220.25884419249633</desc></g><g class="slice"><path d="M569.356702 223.042661 A267.000000 267.000000 0 0 1 572.995596 265.466424 L546.296036 265.619782 A240.300000 240.300000 0 0 0 543.021032 227.438395 z" class="slice reactive tooltip-trigger"/><desc class="value">0.1583269231</desc><desc class="x centered">558.7220236364477</desc><desc class="y centered">245.3227937893566</desc></g><g class="big_slice"><path d="M511.365688 142.224105 A240.300000 240.300000 0 0 1 546.296036 265.619782 L306.000000 267.000000 A0.000000 0.000000 0 0 0 306.000000 267.000000 z" class="slice reactive tooltip-trigger"/><desc class="value">0.535775</desc><desc class="x centered">421.60732726871805</desc><desc class="y centered">234.27434673251696</desc></g></g></g><g class="series serie-3 color-3"><g class="slices"><g class="slice"><path d="M572.995596 265.466424 A267.000000 267.000000 0 0 1 570.149268 305.912264 L543.734341 302.021038 A240.300000 240.300000 0 0 0 546.296036 265.619782 z" class="slice reactive tooltip-trigger"/><desc class="value">0.15075</desc><desc class="x centered">559.0242259514812</desc><desc class="y centered">284.80627927596873</desc></g><g class="slice"><path d="M570.149268 305.912264 A267.000000 267.000000 0 0 1 559.520497 350.763702 L534.168447 342.387332 A240.300000 240.300000 0 0 0 543.734341 302.021038 z" class="slice reactive tooltip-trigger"/><desc class="value">0.171425</desc><desc class="x centered">552.8143315233235</desc><desc class="y centered">325.4893858293534</desc></g><g class="slice"><path d="M559.520497 350.763702 A267.000000 267.000000 0 0 1 555.112790 363.082349 L530.201511 353.474114 A240.300000 240.300000 0 0 0 534.168447 342.387332 z" class="slice reactive tooltip-trigger"/><desc class="value">0.0486025</desc><desc class="x centered">544.8225037098082</desc><desc class="y centered">352.4525261287148</desc></g><g class="slice"><path d="M555.112790 363.082349 A267.000000 267.000000 0 0 1 535.977001 402.645049 L512.979301 389.080544 A240.300000 240.300000 0 0 0 530.201511 353.474114 z" class="slice reactive tooltip-trigger"/><desc class="value">0.163425</desc><desc class="x centered">534.342255146468</desc><desc class="y centered">377.4451765113592</desc></g><g class="big_slice"><path d="M546.296036 265.619782 A240.300000 240.300000 0 0 1 512.979301 389.080544 L306.000000 267.000000 A0.000000 0.000000 0 0 0 306.000000 267.000000 z" class="slice reactive tooltip-trigger"/><desc class="value">0.5342025</desc><desc class="x centered">422.00048128138513</desc><desc class="y centered">298.30352763646647</desc></g></g></g><g class="series serie-4 color-4"><g class="slices"><g class="slice"><path d="M535.977001 402.645049 A267.000000 267.000000 0 0 1 513.400141 435.149283 L492.660127 418.334355 A240.300000 240.300000 0 0 0 512.979301 389.080544 z" class="slice reactive tooltip-trigger"/><desc class="value">0.1471363636</desc><desc class="x centered">514.3270558266431</desc><desc class="y centered">411.7002429528118</desc></g><g class="slice"><path d="M513.400141 435.149283 A267.000000 267.000000 0 0 1 478.023943 471.197853 L460.821549 450.778067 A240.300000 240.300000 0 0 0 492.660127 418.334355 z" class="slice reactive tooltip-trigger"/><desc class="value">0.1878863636</desc><desc class="x centered">487.0380325308299</desc><desc class="y centered">444.66134435314325</desc></g><g class="slice"><path d="M478.023943 471.197853 A267.000000 267.000000 0 0 1 466.071035 480.696663 L450.063931 459.326997 A240.300000 240.300000 0 0 0 460.821549 450.778067 z" class="slice reactive tooltip-trigger"/><desc class="value">0.05671818182</desc><desc class="x centered">463.8096278468345</desc><desc class="y centered">465.5810762858425</desc></g><g class="slice"><path d="M466.071035 480.696663 A267.000000 267.000000 0 0 1 432.234453 502.274017 L419.611007 478.746615 A240.300000 240.300000 0 0 0 450.063931 459.326997 z" class="slice reactive tooltip-trigger"/><desc class="value">0.1492045455</desc><desc class="x centered">442.3807755795143</desc><desc class="y centered">480.8658611193712</desc></g><g class="big_slice"><path d="M512.979301 389.080544 A240.300000 240.300000 0 0 1 419.611007 478.746615 L306.000000 267.000000 A0.000000 0.000000 0 0 0 306.000000 267.000000 z" class="slice reactive tooltip-trigger"/><desc class="value">0.5409454545</desc><desc class="x centered">389.223400348561</desc><desc class="y centered">353.65961074470124</desc></g></g></g><g class="series serie-5 color-5"><g class="slices"><g class="slice"><path d="M432.234453 502.274017 A267.000000 267.000000 0 0 1 406.851937 514.220320 L396.766743 489.498288 A240.300000 240.300000 0 0 0 419.611007 478.746615 z" class="slice reactive tooltip-trigger"/><desc class="value">0.10425</desc><desc class="x centered">414.0151905863239</desc><desc class="y centered">496.50172352860477</desc></g><g class="slice"><path d="M406.851937 514.220320 A267.000000 267.000000 0 0 1 353.701748 529.704289 L348.931573 503.433860 A240.300000 240.300000 0 0 0 396.766743 489.498288 z" class="slice reactive tooltip-trigger"/><desc class="value">0.206</desc><desc class="x centered">376.9452699102266</desc><desc class="y centered">510.52636649316867</desc></g><g class="slice"><path d="M353.701748 529.704289 A267.000000 267.000000 0 0 1 348.892942 530.532153 L344.603648 504.178938 A240.300000 240.300000 0 0 0 348.931573 503.433860 z" class="slice reactive tooltip-trigger"/><desc class="value">0.018125</desc><desc class="x centered">349.03427411701983</desc><desc class="y centered">516.9727460168832</desc></g><g class="slice"><path d="M348.892942 530.532153 A267.000000 267.000000 0 0 1 322.147742 533.511258 L320.532968 506.860132 A240.300000 240.300000 0 0 0 344.603648 504.178938 z" class="slice reactive tooltip-trigger"/><desc class="value">0.1</desc><desc class="x centered">334.080003549516</desc><desc class="y centered">519.0909278428305</desc></g><g class="big_slice"><path d="M419.611007 478.746615 A240.300000 240.300000 0 0 1 320.532968 506.860132 L306.000000 267.000000 A0.000000 0.000000 0 0 0 306.000000 267.000000 z" class="slice reactive tooltip-trigger"/><desc class="value">0.428375</desc><desc class="x centered">338.797911793047</desc><desc class="y centered">382.5868482225184</desc></g></g></g><g class="series serie-6 color-6"><g class="slices"><g class="slice"><path d="M322.147742 533.511258 A267.000000 267.000000 0 0 1 273.920860 532.065895 L277.128774 505.559306 A240.300000 240.300000 0 0 0 320.532968 506.860132 z" class="slice reactive tooltip-trigger"/><desc class="value">0.1794606959</desc><desc class="x centered">298.4015066136545</desc><desc class="y centered">520.5361619143464</desc></g><g class="slice"><path d="M273.920860 532.065895 A267.000000 267.000000 0 0 1 227.967717 522.342834 L235.770945 496.808550 A240.300000 240.300000 0 0 0 277.128774 505.559306 z" class="slice reactive tooltip-trigger"/><desc class="value">0.1746945876</desc><desc class="x centered">253.49356038786965</desc><desc class="y centered">515.1559918665228</desc></g><g class="slice"><path d="M227.967717 522.342834 A267.000000 267.000000 0 0 1 215.975031 518.365282 L224.977528 493.228754 A240.300000 240.300000 0 0 0 235.770945 496.808550 z" class="slice reactive tooltip-trigger"/><desc class="value">0.04693656572</desc><desc class="x centered">226.15044998235766</desc><desc class="y centered">507.7537577317954</desc></g><g class="slice"><path d="M215.975031 518.365282 A267.000000 267.000000 0 0 1 181.464701 503.177813 L193.918231 479.560032 A240.300000 240.300000 0 0 0 224.977528 493.228754 z" class="slice reactive tooltip-trigger"/><desc class="value">0.140167107</desc><desc class="x centered">203.82887162150337</desc><desc class="y centered">499.16240657321066</desc></g><g class="big_slice"><path d="M320.532968 506.860132 A240.300000 240.300000 0 0 1 193.918231 479.560032 L306.000000 267.000000 A0.000000 0.000000 0 0 0 306.000000 267.000000 z" class="slice reactive tooltip-trigger"/><desc class="value">0.5412589562</desc><desc class="x centered">280.67577252571994</desc><desc class="y centered">384.4508663349527</desc></g></g></g><g class="series serie-7 color-7"><g class="slices"><g class="slice"><path d="M181.464701 503.177813 A267.000000 267.000000 0 0 1 140.098061 476.202167 L156.688255 455.281950 A240.300000 240.300000 0 0 0 193.918231 479.560032 z" class="slice reactive tooltip-trigger"/><desc class="value">0.1837</desc><desc class="x centered">167.44853758443827</desc><desc class="y centered">479.4660320204366</desc></g><g class="slice"><path d="M140.098061 476.202167 A267.000000 267.000000 0 0 1 103.579728 441.112129 L123.821755 423.700916 A240.300000 240.300000 0 0 0 156.688255 455.281950 z" class="slice reactive tooltip-trigger"/><desc class="value">0.1884</desc><desc class="x centered">130.2547743838234</desc><desc class="y centered">449.898710146133</desc></g><g class="slice"><path d="M103.579728 441.112129 A267.000000 267.000000 0 0 1 97.071506 433.246457 L117.964355 416.621811 A240.300000 240.300000 0 0 0 123.821755 423.700916 z" class="slice reactive tooltip-trigger"/><desc class="value">0.03792333333</desc><desc class="x centered">110.57361831689121</desc><desc class="y centered">428.6998820106183</desc></g><g class="slice"><path d="M97.071506 433.246457 A267.000000 267.000000 0 0 1 74.943616 400.798160 L98.049255 387.418344 A240.300000 240.300000 0 0 0 117.964355 416.621811 z" class="slice reactive tooltip-trigger"/><desc class="value">0.1460166667</desc><desc class="x centered">96.43961180254519</desc><desc class="y centered">409.90824398379556</desc></g><g class="big_slice"><path d="M193.918231 479.560032 A240.300000 240.300000 0 0 1 98.049255 387.418344 L306.000000 267.000000 A0.000000 0.000000 0 0 0 306.000000 267.000000 z" class="slice reactive tooltip-trigger"/><desc class="value">0.55604</desc><desc class="x centered">222.7417793664588</desc><desc class="y centered">353.62615769463963</desc></g></g></g><g class="series serie-8 color-8"><g class="slices"><g class="slice"><path d="M74.943616 400.798160 A267.000000 267.000000 0 0 1 60.656867 372.336352 L85.191180 361.802717 A240.300000 240.300000 0 0 0 98.049255 387.418344 z" class="slice reactive tooltip-trigger"/><desc class="value">0.1183611111</desc><desc class="x centered">79.30674175351768</desc><desc class="y centered">380.7914283485082</desc></g><g class="slice"><path d="M60.656867 372.336352 A267.000000 267.000000 0 0 1 45.241787 324.394725 L71.317608 318.655252 A240.300000 240.300000 0 0 0 85.191180 361.802717 z" class="slice reactive tooltip-trigger"/><desc class="value">0.1873333333</desc><desc class="x centered">64.52569117220045</desc><desc class="y centered">344.64329125002683</desc></g><g class="slice"><path d="M45.241787 324.394725 A267.000000 267.000000 0 0 1 42.536761 310.314218 L68.883084 305.982796 A240.300000 240.300000 0 0 0 71.317608 318.655252 z" class="slice reactive tooltip-trigger"/><desc class="value">0.05326388889</desc><desc class="x centered">56.905003792410895</desc><desc class="y centered">314.8540005050902</desc></g><g class="slice"><path d="M42.536761 310.314218 A267.000000 267.000000 0 0 1 39.395066 281.519274 L66.055560 280.067347 A240.300000 240.300000 0 0 0 68.883084 305.982796 z" class="slice reactive tooltip-trigger"/><desc class="value">0.1076444444</desc><desc class="x centered">53.846386695941646</desc><desc class="y centered">294.5114121358284</desc></g><g class="big_slice"><path d="M98.049255 387.418344 A240.300000 240.300000 0 0 1 66.055560 280.067347 L306.000000 267.000000 A0.000000 0.000000 0 0 0 306.000000 267.000000 z" class="slice reactive tooltip-trigger"/><desc class="value">0.4666027778</desc><desc class="x centered">190.8548921075651</desc><desc class="y centered">301.3165649277361</desc></g></g></g><g class="series serie-9 color-9"><g class="slices"><g class="slice"><path d="M39.395066 281.519274 A267.000000 267.000000 0 0 1 40.581022 237.986796 L67.122920 240.888117 A240.300000 240.300000 0 0 0 66.055560 280.067347 z" class="slice reactive tooltip-trigger"/><desc class="value">0.1619383013</desc><desc class="x centered">52.44407477367392</desc><desc class="y centered">260.0923750375586</desc></g><g class="slice"><path d="M40.581022 237.986796 A267.000000 267.000000 0 0 1 50.201787 190.473703 L75.781608 198.126333 A240.300000 240.300000 0 0 0 67.122920 240.888117 z" class="slice reactive tooltip-trigger"/><desc class="value">0.1803141026</desc><desc class="x centered">57.39530303247179</desc><desc class="y centered">216.66087857656362</desc></g><g class="slice"><path d="M50.201787 190.473703 A267.000000 267.000000 0 0 1 53.795152 179.354609 L79.015637 188.119149 A240.300000 240.300000 0 0 0 75.781608 198.126333 z" class="slice reactive tooltip-trigger"/><desc class="value">0.04340777244</desc><desc class="x centered">64.64075157188324</desc><desc class="y centered">188.99977116562656</desc></g><g class="slice"><path d="M53.795152 179.354609 A267.000000 267.000000 0 0 1 68.251174 145.490758 L92.026057 157.641682 A240.300000 240.300000 0 0 0 79.015637 188.119149 z" class="slice reactive tooltip-trigger"/><desc class="value">0.1368752671</desc><desc class="x centered">72.71678680464464</desc><desc class="y centered">167.4145344879566</desc></g><g class="big_slice"><path d="M66.055560 280.067347 A240.300000 240.300000 0 0 1 92.026057 157.641682 L306.000000 267.000000 A0.000000 0.000000 0 0 0 306.000000 267.000000 z" class="slice reactive tooltip-trigger"/><desc class="value">0.5225354434</desc><desc class="x centered">188.46544598410003</desc><desc class="y centered">242.06706771590035</desc></g></g></g><g class="series serie-10 color-10"><g class="slices"><g class="slice"><path d="M68.251174 145.490758 A267.000000 267.000000 0 0 1 87.140452 114.063745 L109.026407 129.357370 A240.300000 240.300000 0 0 0 92.026057 157.641682 z" class="slice reactive tooltip-trigger"/><desc class="value">0.1363040123</desc><desc class="x centered">88.59790992550745</desc><desc class="y centered">136.3299815135766</desc></g><g class="slice"><path d="M87.140452 114.063745 A267.000000 267.000000 0 0 1 122.192669 73.340854 L140.573402 92.706768 A240.300000 240.300000 0 0 0 109.026407 129.357370 z" class="slice reactive tooltip-trigger"/><desc class="value">0.1999182099</desc><desc class="x centered">113.75759427726055</desc><desc class="y centered">101.52740425697786</desc></g><g class="slice"><path d="M122.192669 73.340854 A267.000000 267.000000 0 0 1 131.893350 64.575015 L149.304015 84.817514 A240.300000 240.300000 0 0 0 140.573402 92.706768 z" class="slice reactive tooltip-trigger"/><desc class="value">0.04856929012</desc><desc class="x centered">135.93987802724274</desc><desc class="y centered">78.80362008101505</desc></g><g class="slice"><path d="M131.893350 64.575015 A267.000000 267.000000 0 0 1 159.571434 43.734071 L174.214291 66.060664 A240.300000 240.300000 0 0 0 149.304015 84.817514 z" class="slice reactive tooltip-trigger"/><desc class="value">0.1287847826</desc><desc class="x centered">153.4242848170873</desc><desc class="y centered">64.36985999999231</desc></g><g class="big_slice"><path d="M92.026057 157.641682 A240.300000 240.300000 0 0 1 174.214291 66.060664 L306.000000 267.000000 A0.000000 0.000000 0 0 0 306.000000 267.000000 z" class="slice reactive tooltip-trigger"/><desc class="value">0.513576295</desc><desc class="x centered">216.57935777995198</desc><desc class="y centered">186.7505685692779</desc></g></g></g><g class="series serie-11 color-11"><g class="slices"><g class="slice"><path d="M159.571434 43.734071 A267.000000 267.000000 0 0 1 203.456040 20.476702 L213.710436 45.129032 A240.300000 240.300000 0 0 0 174.214291 66.060664 z" class="slice reactive tooltip-trigger"/><desc class="value">0.18475</desc><desc class="x centered">187.22319054957535</desc><desc class="y centered">42.878622088883446</desc></g><g class="slice"><path d="M203.456040 20.476702 A267.000000 267.000000 0 0 1 250.885910 5.750240 L256.397319 31.875216 A240.300000 240.300000 0 0 0 213.710436 45.129032 z" class="slice reactive tooltip-trigger"/><desc class="value">0.1847386364</desc><desc class="x centered">230.7864393999823</desc><desc class="y centered">24.757883922164638</desc></g><g class="slice"><path d="M250.885910 5.750240 A267.000000 267.000000 0 0 1 261.566113 3.723283 L266.009502 30.050955 A240.300000 240.300000 0 0 0 256.397319 31.875216 z" class="slice reactive tooltip-trigger"/><desc class="value">0.04038181818</desc><desc class="x centered">258.7049098638631</desc><desc class="y centered">17.7982806058219</desc></g><g class="slice"><path d="M261.566113 3.723283 A267.000000 267.000000 0 0 1 306.000000 0.000000 L306.000000 26.700000 A240.300000 240.300000 0 0 0 266.009502 30.050955 z" class="slice reactive tooltip-trigger"/><desc class="value">0.1658181818</desc><desc class="x centered">284.81993623520344</desc><desc class="y centered">14.235826512301884</desc></g><g class="big_slice"><path d="M174.214291 66.060664 A240.300000 240.300000 0 0 1 306.000000 26.700000 L306.000000 267.000000 A0.000000 0.000000 0 0 0 306.000000 267.000000 z" class="slice reactive tooltip-trigger"/><desc class="value">0.5756886364</desc><desc class="x centered">271.61546953583206</desc><desc class="y centered">151.87516964286675</desc></g></g></g></g><g class="titles"><text x="400.0" y="26" class="title plot_title">Pie Chart Example</text></g><g transform="translate(168, 46)" class="plot overlay"><g class="series serie-0 color-0"/><g class="series serie-1 color-1"/><g class="series serie-2 color-2"/><g class="series serie-3 color-3"/><g class="series serie-4 color-4"/><g class="series serie-5 color-5"/><g class="series serie-6 color-6"/><g class="series serie-7 color-7"/><g class="series serie-8 color-8"/><g class="series serie-9 color-9"/><g class="series serie-10 color-10"/><g class="series serie-11 color-11"/></g><g transform="translate(168, 46)" class="plot text-overlay"><g class="series serie-0 color-0"/><g class="series serie-1 color-1"/><g class="series serie-2 color-2"/><g class="series serie-3 color-3"/><g class="series serie-4 color-4"/><g class="series serie-5 color-5"/><g class="series serie-6 color-6"/><g class="series serie-7 color-7"/><g class="series serie-8 color-8"/><g class="series serie-9 color-9"/><g class="series serie-10 color-10"/><g class="series serie-11 color-11"/></g><g transform="translate(168, 46)" class="plot tooltip-overlay"><g transform="translate(0 0)" style="opacity: 0" class="tooltip"><rect rx="0" ry="0" width="0" height="0" class="tooltip-box"/><g class="text"/></g></g><g transform="translate(10, 56)" class="legends"><g id="activate-serie-0" class="legend reactive activate-serie"><rect x="0.0" y="1.0" width="12" height="12" class="color-0 reactive"/><text x="17.0" y="11.2">Dance/Electron…</text><title>Dance/Electronic</title></g><g id="activate-serie-1" class="legend reactive activate-serie"><rect x="0.0" y="22.0" width="12" height="12" class="color-1 reactive"/><text x="17.0" y="32.2">Folk/Acoustic</text></g><g id="activate-serie-2" class="legend reactive activate-serie"><rect x="0.0" y="43.0" width="12" height="12" class="color-2 reactive"/><text x="17.0" y="53.2">R&amp;B</text></g><g id="activate-serie-3" class="legend reactive activate-serie"><rect x="0.0" y="64.0" width="12" height="12" class="color-3 reactive"/><text x="17.0" y="74.2">World/Traditio…</text><title>World/Traditional</title></g><g id="activate-serie-4" class="legend reactive activate-serie"><rect x="0.0" y="85.0" width="12" height="12" class="color-4 reactive"/><text x="17.0" y="95.2">country</text></g><g id="activate-serie-5" class="legend reactive activate-serie"><rect x="0.0" y="106.0" width="12" height="12" class="color-5 reactive"/><text x="17.0" y="116.2">easy listening</text></g><g id="activate-serie-6" class="legend reactive activate-serie"><rect x="0.0" y="127.0" width="12" height="12" class="color-6 reactive"/><text x="17.0" y="137.2">hip hop</text></g><g id="activate-serie-7" class="legend reactive activate-serie"><rect x="0.0" y="148.0" width="12" height="12" class="color-7 reactive"/><text x="17.0" y="158.2">latin</text></g><g id="activate-serie-8" class="legend reactive activate-serie"><rect x="0.0" y="169.0" width="12" height="12" class="color-8 reactive"/><text x="17.0" y="179.2">metal</text></g><g id="activate-serie-9" class="legend reactive activate-serie"><rect x="0.0" y="190.0" width="12" height="12" class="color-9 reactive"/><text x="17.0" y="200.2">pop</text></g><g id="activate-serie-10" class="legend reactive activate-serie"><rect x="0.0" y="211.0" width="12" height="12" class="color-10 reactive"/><text x="17.0" y="221.2">rock</text></g><g id="activate-serie-11" class="legend reactive activate-serie"><rect x="0.0" y="232.0" width="12" height="12" class="color-11 reactive"/><text x="17.0" y="242.2">set()</text></g></g><g transform="translate(790, 56)" class="legends"/></g></svg>