<svg xmlns="http://www.w3.org/2000/svg" xmlns:xlink="http://www.w3.org/1999/xlink" width="250" zoomAndPan="magnify" viewBox="0 0 187.5 74.999997" height="100" preserveAspectRatio="xMidYMid meet" version="1.0"><defs><g/></defs><g fill="#004aad" fill-opacity="1"><g transform="translate(7.480053, 44.060077)"><g><path d="M 3.078125 -2.1875 L 3.078125 -13 C 3.078125 -13.175781 2.988281 -13.265625 2.8125 -13.265625 L 1.09375 -13.265625 C 0.914062 -13.265625 0.828125 -13.175781 0.828125 -13 L 0.828125 -0.265625 C 0.828125 -0.0859375 0.914062 0 1.09375 0 L 7.03125 0 C 7.207031 0 7.296875 -0.0859375 7.296875 -0.265625 L 7.296875 -1.921875 C 7.296875 -2.097656 7.207031 -2.1875 7.03125 -2.1875 Z M 3.078125 -2.1875 "/></g></g></g><g fill="#004aad" fill-opacity="1"><g transform="translate(15.599498, 44.060077)"><g><path d="M 7.484375 -10.875 L 7.484375 -9.078125 C 7.484375 -8.898438 7.394531 -8.8125 7.21875 -8.8125 L 5.546875 -8.8125 C 5.367188 -8.8125 5.28125 -8.898438 5.28125 -9.078125 L 5.28125 -10.40625 C 5.28125 -10.851562 5.0625 -11.078125 4.625 -11.078125 L 3.765625 -11.078125 C 3.316406 -11.078125 3.09375 -10.851562 3.09375 -10.40625 L 3.09375 -2.84375 C 3.09375 -2.40625 3.316406 -2.1875 3.765625 -2.1875 L 4.625 -2.1875 C 5.0625 -2.1875 5.28125 -2.40625 5.28125 -2.84375 L 5.28125 -4.171875 C 5.28125 -4.347656 5.367188 -4.4375 5.546875 -4.4375 L 7.21875 -4.4375 C 7.394531 -4.4375 7.484375 -4.347656 7.484375 -4.171875 L 7.484375 -2.390625 C 7.484375 -1.617188 7.273438 -1.023438 6.859375 -0.609375 C 6.453125 -0.203125 5.863281 0 5.09375 0 L 3.234375 0 C 2.460938 0 1.867188 -0.203125 1.453125 -0.609375 C 1.035156 -1.023438 0.828125 -1.617188 0.828125 -2.390625 L 0.828125 -10.875 C 0.828125 -11.65625 1.035156 -12.25 1.453125 -12.65625 C 1.867188 -13.0625 2.460938 -13.265625 3.234375 -13.265625 L 5.09375 -13.265625 C 5.863281 -13.265625 6.453125 -13.0625 6.859375 -12.65625 C 7.273438 -12.25 7.484375 -11.65625 7.484375 -10.875 Z M 7.484375 -10.875 "/></g></g></g><g fill="#0cc0df" fill-opacity="1"><g transform="translate(23.902069, 44.060077)"><g><path d="M 7.484375 -10.875 L 7.484375 -9.078125 C 7.484375 -8.898438 7.394531 -8.8125 7.21875 -8.8125 L 5.546875 -8.8125 C 5.367188 -8.8125 5.28125 -8.898438 5.28125 -9.078125 L 5.28125 -10.40625 C 5.28125 -10.851562 5.0625 -11.078125 4.625 -11.078125 L 3.765625 -11.078125 C 3.316406 -11.078125 3.09375 -10.851562 3.09375 -10.40625 L 3.09375 -2.84375 C 3.09375 -2.40625 3.316406 -2.1875 3.765625 -2.1875 L 4.625 -2.1875 C 5.0625 -2.1875 5.28125 -2.40625 5.28125 -2.84375 L 5.28125 -4.171875 C 5.28125 -4.347656 5.367188 -4.4375 5.546875 -4.4375 L 7.21875 -4.4375 C 7.394531 -4.4375 7.484375 -4.347656 7.484375 -4.171875 L 7.484375 -2.390625 C 7.484375 -1.617188 7.273438 -1.023438 6.859375 -0.609375 C 6.453125 -0.203125 5.863281 0 5.09375 0 L 3.234375 0 C 2.460938 0 1.867188 -0.203125 1.453125 -0.609375 C 1.035156 -1.023438 0.828125 -1.617188 0.828125 -2.390625 L 0.828125 -10.875 C 0.828125 -11.65625 1.035156 -12.25 1.453125 -12.65625 C 1.867188 -13.0625 2.460938 -13.265625 3.234375 -13.265625 L 5.09375 -13.265625 C 5.863281 -13.265625 6.453125 -13.0625 6.859375 -12.65625 C 7.273438 -12.25 7.484375 -11.65625 7.484375 -10.875 Z M 7.484375 -10.875 "/></g></g></g><g fill="#0cc0df" fill-opacity="1"><g transform="translate(32.203788, 44.060077)"><g><path d="M 0.828125 -2.390625 L 0.828125 -9.21875 C 0.828125 -10 1.03125 -10.59375 1.4375 -11 C 1.851562 -11.40625 2.445312 -11.609375 3.21875 -11.609375 L 5.078125 -11.609375 C 5.859375 -11.609375 6.445312 -11.40625 6.84375 -11 C 7.25 -10.59375 7.453125 -10 7.453125 -9.21875 L 7.453125 -2.390625 C 7.453125 -1.617188 7.25 -1.023438 6.84375 -0.609375 C 6.445312 -0.203125 5.859375 0 5.078125 0 L 3.21875 0 C 2.445312 0 1.851562 -0.203125 1.4375 -0.609375 C 1.03125 -1.023438 0.828125 -1.617188 0.828125 -2.390625 Z M 3.640625 -2.140625 L 4.703125 -2.140625 C 5.148438 -2.140625 5.375 -2.359375 5.375 -2.796875 L 5.375 -8.796875 C 5.375 -9.242188 5.148438 -9.46875 4.703125 -9.46875 L 3.640625 -9.46875 C 3.203125 -9.46875 2.984375 -9.242188 2.984375 -8.796875 L 2.984375 -2.796875 C 2.984375 -2.359375 3.203125 -2.140625 3.640625 -2.140625 Z M 3.640625 -2.140625 "/></g></g></g><g fill="#0cc0df" fill-opacity="1"><g transform="translate(40.488937, 44.060077)"><g><path d="M 7.765625 -11.609375 L 9.953125 -11.609375 C 10.171875 -11.609375 10.28125 -11.492188 10.28125 -11.265625 L 10.28125 -0.328125 C 10.28125 -0.109375 10.171875 0 9.953125 0 L 8.40625 0 C 8.1875 0 8.078125 -0.109375 8.078125 -0.328125 L 8.078125 -6.84375 L 7.953125 -6.84375 L 6.40625 -0.28125 C 6.34375 -0.09375 6.21875 0 6.03125 0 L 5.0625 0 C 4.875 0 4.75 -0.09375 4.6875 -0.28125 L 3.140625 -6.84375 L 3.015625 -6.84375 L 3.015625 -0.328125 C 3.015625 -0.109375 2.90625 0 2.6875 0 L 1.15625 0 C 0.9375 0 0.828125 -0.109375 0.828125 -0.328125 L 0.828125 -11.265625 C 0.828125 -11.492188 0.9375 -11.609375 1.15625 -11.609375 L 3.34375 -11.609375 C 3.53125 -11.609375 3.65625 -11.515625 3.71875 -11.328125 L 5.546875 -3.921875 L 7.390625 -11.328125 C 7.453125 -11.515625 7.578125 -11.609375 7.765625 -11.609375 Z M 7.765625 -11.609375 "/></g></g></g><g fill="#0cc0df" fill-opacity="1"><g transform="translate(51.591036, 44.060077)"><g><path d="M 0.828125 -0.265625 L 0.828125 -11.34375 C 0.828125 -11.519531 0.914062 -11.609375 1.09375 -11.609375 L 5.078125 -11.609375 C 5.859375 -11.609375 6.445312 -11.40625 6.84375 -11 C 7.25 -10.59375 7.453125 -10 7.453125 -9.21875 L 7.453125 -5.96875 C 7.453125 -5.195312 7.25 -4.609375 6.84375 -4.203125 C 6.445312 -3.796875 5.859375 -3.585938 5.078125 -3.578125 L 2.984375 -3.5625 L 2.984375 -0.25 C 2.984375 -0.0703125 2.894531 0.015625 2.71875 0.015625 L 1.09375 0 C 0.914062 0 0.828125 -0.0859375 0.828125 -0.265625 Z M 2.984375 -5.703125 L 4.640625 -5.71875 C 5.085938 -5.71875 5.3125 -5.9375 5.3125 -6.375 L 5.3125 -8.796875 C 5.3125 -9.242188 5.085938 -9.46875 4.640625 -9.46875 L 2.984375 -9.453125 Z M 2.984375 -5.703125 "/></g></g></g><g fill="#0cc0df" fill-opacity="1"><g transform="translate(59.876186, 44.060077)"><g><path d="M 5.609375 -11.609375 L 7.125 -11.609375 C 7.21875 -11.609375 7.296875 -11.570312 7.359375 -11.5 C 7.421875 -11.4375 7.453125 -11.359375 7.453125 -11.265625 L 7.453125 -2.390625 C 7.453125 -1.617188 7.25 -1.023438 6.84375 -0.609375 C 6.445312 -0.203125 5.859375 0 5.078125 0 L 3.21875 0 C 2.445312 0 1.851562 -0.203125 1.4375 -0.609375 C 1.03125 -1.023438 0.828125 -1.617188 0.828125 -2.390625 L 0.828125 -11.265625 C 0.828125 -11.359375 0.859375 -11.4375 0.921875 -11.5 C 0.992188 -11.570312 1.070312 -11.609375 1.15625 -11.609375 L 2.75 -11.609375 C 2.84375 -11.609375 2.921875 -11.570312 2.984375 -11.5 C 3.046875 -11.4375 3.078125 -11.359375 3.078125 -11.265625 L 3.078125 -2.84375 C 3.078125 -2.40625 3.300781 -2.1875 3.75 -2.1875 L 4.609375 -2.1875 C 5.046875 -2.1875 5.265625 -2.40625 5.265625 -2.84375 L 5.265625 -11.265625 C 5.265625 -11.359375 5.296875 -11.4375 5.359375 -11.5 C 5.429688 -11.570312 5.515625 -11.609375 5.609375 -11.609375 Z M 5.609375 -11.609375 "/></g></g></g><g fill="#0cc0df" fill-opacity="1"><g transform="translate(68.161335, 44.060077)"><g><path d="M 6.859375 -11.609375 L 0.765625 -11.609375 C 0.585938 -11.609375 0.5 -11.519531 0.5 -11.34375 L 0.5 -9.6875 C 0.5 -9.507812 0.585938 -9.421875 0.765625 -9.421875 L 2.6875 -9.421875 L 2.6875 -0.265625 C 2.6875 -0.0859375 2.773438 0 2.953125 0 L 4.671875 0 C 4.847656 0 4.9375 -0.0859375 4.9375 -0.265625 L 4.9375 -9.421875 L 6.859375 -9.421875 C 7.035156 -9.421875 7.125 -9.507812 7.125 -9.6875 L 7.125 -11.34375 C 7.125 -11.519531 7.035156 -11.609375 6.859375 -11.609375 Z M 6.859375 -11.609375 "/></g></g></g><g fill="#0cc0df" fill-opacity="1"><g transform="translate(75.783672, 44.060077)"><g><path d="M 7.4375 -11.34375 L 7.4375 -9.6875 C 7.4375 -9.5 7.347656 -9.40625 7.171875 -9.40625 L 3.078125 -9.40625 L 3.078125 -6.84375 L 6.203125 -6.84375 C 6.378906 -6.84375 6.46875 -6.75 6.46875 -6.5625 L 6.46875 -4.921875 C 6.46875 -4.734375 6.378906 -4.640625 6.203125 -4.640625 L 3.078125 -4.640625 L 3.078125 -2.1875 L 7.171875 -2.1875 C 7.347656 -2.1875 7.4375 -2.097656 7.4375 -1.921875 L 7.4375 -0.265625 C 7.4375 -0.0859375 7.347656 0 7.171875 0 L 1.078125 0 C 0.910156 0 0.828125 -0.0859375 0.828125 -0.265625 L 0.828125 -11.34375 C 0.828125 -11.519531 0.910156 -11.609375 1.078125 -11.609375 L 7.171875 -11.609375 C 7.347656 -11.609375 7.4375 -11.519531 7.4375 -11.34375 Z M 7.4375 -11.34375 "/></g></g></g><g fill="#0cc0df" fill-opacity="1"><g transform="translate(84.052251, 44.060077)"><g><path d="M 7.453125 -9.21875 L 7.453125 -5.890625 C 7.453125 -4.921875 7.144531 -4.242188 6.53125 -3.859375 L 7.390625 -0.296875 C 7.453125 -0.0976562 7.375 0 7.15625 0 L 5.53125 0 C 5.382812 0 5.289062 -0.078125 5.25 -0.234375 L 4.453125 -3.5 L 2.984375 -3.5 L 2.984375 -0.265625 C 2.984375 -0.0859375 2.894531 0 2.71875 0 L 1.09375 0 C 0.914062 0 0.828125 -0.0859375 0.828125 -0.265625 L 0.828125 -11.34375 C 0.828125 -11.519531 0.914062 -11.609375 1.09375 -11.609375 L 5.078125 -11.609375 C 5.859375 -11.609375 6.445312 -11.40625 6.84375 -11 C 7.25 -10.59375 7.453125 -10 7.453125 -9.21875 Z M 2.984375 -5.640625 L 4.640625 -5.640625 C 5.085938 -5.640625 5.3125 -5.859375 5.3125 -6.296875 L 5.3125 -8.796875 C 5.3125 -9.242188 5.085938 -9.46875 4.640625 -9.46875 L 2.984375 -9.46875 Z M 2.984375 -5.640625 "/></g></g></g><g fill="#004aad" fill-opacity="1"><g transform="translate(92.338041, 44.060077)"><g><path d="M 3.21875 -13.265625 L 5.078125 -13.265625 C 5.859375 -13.265625 6.445312 -13.0625 6.84375 -12.65625 C 7.25 -12.25 7.453125 -11.65625 7.453125 -10.875 L 7.453125 -9.125 C 7.453125 -8.945312 7.363281 -8.859375 7.1875 -8.859375 L 5.46875 -8.859375 C 5.289062 -8.859375 5.203125 -8.945312 5.203125 -9.125 L 5.203125 -10.40625 C 5.203125 -10.851562 4.984375 -11.078125 4.546875 -11.078125 L 3.75 -11.078125 C 3.300781 -11.078125 3.078125 -10.851562 3.078125 -10.40625 L 3.078125 -8.125 L 7.03125 -6.828125 C 7.3125 -6.703125 7.453125 -6.5 7.453125 -6.21875 L 7.453125 -2.390625 C 7.453125 -1.617188 7.25 -1.023438 6.84375 -0.609375 C 6.445312 -0.203125 5.859375 0 5.078125 0 L 3.21875 0 C 2.445312 0 1.851562 -0.203125 1.4375 -0.609375 C 1.03125 -1.023438 0.828125 -1.617188 0.828125 -2.390625 L 0.828125 -4.125 C 0.828125 -4.300781 0.914062 -4.390625 1.09375 -4.390625 L 2.8125 -4.390625 C 2.988281 -4.390625 3.078125 -4.300781 3.078125 -4.125 L 3.078125 -2.84375 C 3.078125 -2.40625 3.300781 -2.1875 3.75 -2.1875 L 4.546875 -2.1875 C 4.984375 -2.1875 5.203125 -2.40625 5.203125 -2.84375 L 5.203125 -5.0625 L 1.28125 -6.34375 C 0.976562 -6.445312 0.828125 -6.65625 0.828125 -6.96875 L 0.828125 -10.875 C 0.828125 -11.65625 1.03125 -12.25 1.4375 -12.65625 C 1.851562 -13.0625 2.445312 -13.265625 3.21875 -13.265625 Z M 3.21875 -13.265625 "/></g></g></g><g fill="#004aad" fill-opacity="1"><g transform="translate(100.62319, 44.060077)"><g><path d="M 7.484375 -9.21875 L 7.484375 -7.421875 C 7.484375 -7.242188 7.394531 -7.15625 7.21875 -7.15625 L 5.65625 -7.15625 C 5.476562 -7.15625 5.390625 -7.242188 5.390625 -7.421875 L 5.390625 -8.78125 C 5.390625 -9.226562 5.164062 -9.453125 4.71875 -9.453125 L 3.65625 -9.453125 C 3.21875 -9.453125 3 -9.226562 3 -8.78125 L 3 -2.765625 C 3 -2.328125 3.21875 -2.109375 3.65625 -2.109375 L 4.71875 -2.109375 C 5.164062 -2.109375 5.390625 -2.328125 5.390625 -2.765625 L 5.390625 -4.171875 C 5.390625 -4.347656 5.476562 -4.4375 5.65625 -4.4375 L 7.21875 -4.4375 C 7.394531 -4.4375 7.484375 -4.347656 7.484375 -4.171875 L 7.484375 -2.390625 C 7.484375 -1.617188 7.273438 -1.023438 6.859375 -0.609375 C 6.453125 -0.203125 5.863281 0 5.09375 0 L 3.234375 0 C 2.460938 0 1.867188 -0.203125 1.453125 -0.609375 C 1.035156 -1.023438 0.828125 -1.617188 0.828125 -2.390625 L 0.828125 -9.21875 C 0.828125 -10 1.035156 -10.59375 1.453125 -11 C 1.867188 -11.40625 2.460938 -11.609375 3.234375 -11.609375 L 5.09375 -11.609375 C 5.863281 -11.609375 6.453125 -11.40625 6.859375 -11 C 7.273438 -10.59375 7.484375 -10 7.484375 -9.21875 Z M 7.484375 -9.21875 "/></g></g></g><g fill="#004aad" fill-opacity="1"><g transform="translate(108.924909, 44.060077)"><g><path d="M 1.09375 0 L 2.8125 0 C 2.988281 0 3.078125 -0.0859375 3.078125 -0.265625 L 3.078125 -11.34375 C 3.078125 -11.519531 2.988281 -11.609375 2.8125 -11.609375 L 1.09375 -11.609375 C 0.914062 -11.609375 0.828125 -11.519531 0.828125 -11.34375 L 0.828125 -0.265625 C 0.828125 -0.0859375 0.914062 0 1.09375 0 Z M 1.09375 0 "/></g></g></g><g fill="#004aad" fill-opacity="1"><g transform="translate(112.835501, 44.060077)"><g><path d="M 7.4375 -11.34375 L 7.4375 -9.6875 C 7.4375 -9.5 7.347656 -9.40625 7.171875 -9.40625 L 3.078125 -9.40625 L 3.078125 -6.84375 L 6.203125 -6.84375 C 6.378906 -6.84375 6.46875 -6.75 6.46875 -6.5625 L 6.46875 -4.921875 C 6.46875 -4.734375 6.378906 -4.640625 6.203125 -4.640625 L 3.078125 -4.640625 L 3.078125 -2.1875 L 7.171875 -2.1875 C 7.347656 -2.1875 7.4375 -2.097656 7.4375 -1.921875 L 7.4375 -0.265625 C 7.4375 -0.0859375 7.347656 0 7.171875 0 L 1.078125 0 C 0.910156 0 0.828125 -0.0859375 0.828125 -0.265625 L 0.828125 -11.34375 C 0.828125 -11.519531 0.910156 -11.609375 1.078125 -11.609375 L 7.171875 -11.609375 C 7.347656 -11.609375 7.4375 -11.519531 7.4375 -11.34375 Z M 7.4375 -11.34375 "/></g></g></g><g fill="#004aad" fill-opacity="1"><g transform="translate(121.104081, 44.060077)"><g><path d="M 6.078125 -11.609375 L 7.640625 -11.609375 C 7.816406 -11.609375 7.90625 -11.519531 7.90625 -11.34375 L 7.90625 -0.265625 C 7.90625 -0.0859375 7.816406 0 7.640625 0 L 6.328125 0 C 6.203125 0 6.101562 -0.0703125 6.03125 -0.21875 L 2.921875 -6.546875 L 2.921875 -0.265625 C 2.921875 -0.0859375 2.832031 0 2.65625 0 L 1.09375 0 C 0.914062 0 0.828125 -0.0859375 0.828125 -0.265625 L 0.828125 -11.34375 C 0.828125 -11.519531 0.914062 -11.609375 1.09375 -11.609375 L 2.40625 -11.609375 C 2.539062 -11.609375 2.640625 -11.535156 2.703125 -11.390625 L 5.8125 -5.0625 L 5.8125 -11.34375 C 5.8125 -11.519531 5.898438 -11.609375 6.078125 -11.609375 Z M 6.078125 -11.609375 "/></g></g></g><g fill="#004aad" fill-opacity="1"><g transform="translate(129.83663, 44.060077)"><g><path d="M 7.484375 -9.21875 L 7.484375 -7.421875 C 7.484375 -7.242188 7.394531 -7.15625 7.21875 -7.15625 L 5.65625 -7.15625 C 5.476562 -7.15625 5.390625 -7.242188 5.390625 -7.421875 L 5.390625 -8.78125 C 5.390625 -9.226562 5.164062 -9.453125 4.71875 -9.453125 L 3.65625 -9.453125 C 3.21875 -9.453125 3 -9.226562 3 -8.78125 L 3 -2.765625 C 3 -2.328125 3.21875 -2.109375 3.65625 -2.109375 L 4.71875 -2.109375 C 5.164062 -2.109375 5.390625 -2.328125 5.390625 -2.765625 L 5.390625 -4.171875 C 5.390625 -4.347656 5.476562 -4.4375 5.65625 -4.4375 L 7.21875 -4.4375 C 7.394531 -4.4375 7.484375 -4.347656 7.484375 -4.171875 L 7.484375 -2.390625 C 7.484375 -1.617188 7.273438 -1.023438 6.859375 -0.609375 C 6.453125 -0.203125 5.863281 0 5.09375 0 L 3.234375 0 C 2.460938 0 1.867188 -0.203125 1.453125 -0.609375 C 1.035156 -1.023438 0.828125 -1.617188 0.828125 -2.390625 L 0.828125 -9.21875 C 0.828125 -10 1.035156 -10.59375 1.453125 -11 C 1.867188 -11.40625 2.460938 -11.609375 3.234375 -11.609375 L 5.09375 -11.609375 C 5.863281 -11.609375 6.453125 -11.40625 6.859375 -11 C 7.273438 -10.59375 7.484375 -10 7.484375 -9.21875 Z M 7.484375 -9.21875 "/></g></g></g><g fill="#004aad" fill-opacity="1"><g transform="translate(138.138349, 44.060077)"><g><path d="M 7.4375 -11.34375 L 7.4375 -9.6875 C 7.4375 -9.5 7.347656 -9.40625 7.171875 -9.40625 L 3.078125 -9.40625 L 3.078125 -6.84375 L 6.203125 -6.84375 C 6.378906 -6.84375 6.46875 -6.75 6.46875 -6.5625 L 6.46875 -4.921875 C 6.46875 -4.734375 6.378906 -4.640625 6.203125 -4.640625 L 3.078125 -4.640625 L 3.078125 -2.1875 L 7.171875 -2.1875 C 7.347656 -2.1875 7.4375 -2.097656 7.4375 -1.921875 L 7.4375 -0.265625 C 7.4375 -0.0859375 7.347656 0 7.171875 0 L 1.078125 0 C 0.910156 0 0.828125 -0.0859375 0.828125 -0.265625 L 0.828125 -11.34375 C 0.828125 -11.519531 0.910156 -11.609375 1.078125 -11.609375 L 7.171875 -11.609375 C 7.347656 -11.609375 7.4375 -11.519531 7.4375 -11.34375 Z M 7.4375 -11.34375 "/></g></g></g><g fill="#004aad" fill-opacity="1"><g transform="translate(146.406929, 44.060077)"><g><path d="M 0.828125 -0.328125 L 0.828125 -1.859375 C 0.828125 -2.078125 0.9375 -2.1875 1.15625 -2.1875 L 2.671875 -2.1875 C 2.890625 -2.1875 3 -2.078125 3 -1.859375 L 3 -0.328125 C 3 -0.109375 2.890625 0 2.671875 0 L 1.15625 0 C 0.9375 0 0.828125 -0.109375 0.828125 -0.328125 Z M 0.828125 -0.328125 "/></g></g></g><g fill="#004aad" fill-opacity="1"><g transform="translate(150.234669, 44.060077)"><g><path d="M 7.484375 -10.875 L 7.484375 -9.078125 C 7.484375 -8.898438 7.394531 -8.8125 7.21875 -8.8125 L 5.546875 -8.8125 C 5.367188 -8.8125 5.28125 -8.898438 5.28125 -9.078125 L 5.28125 -10.40625 C 5.28125 -10.851562 5.0625 -11.078125 4.625 -11.078125 L 3.765625 -11.078125 C 3.316406 -11.078125 3.09375 -10.851562 3.09375 -10.40625 L 3.09375 -2.84375 C 3.09375 -2.40625 3.316406 -2.1875 3.765625 -2.1875 L 4.625 -2.1875 C 5.0625 -2.1875 5.28125 -2.40625 5.28125 -2.84375 L 5.28125 -4.171875 C 5.28125 -4.347656 5.367188 -4.4375 5.546875 -4.4375 L 7.21875 -4.4375 C 7.394531 -4.4375 7.484375 -4.347656 7.484375 -4.171875 L 7.484375 -2.390625 C 7.484375 -1.617188 7.273438 -1.023438 6.859375 -0.609375 C 6.453125 -0.203125 5.863281 0 5.09375 0 L 3.234375 0 C 2.460938 0 1.867188 -0.203125 1.453125 -0.609375 C 1.035156 -1.023438 0.828125 -1.617188 0.828125 -2.390625 L 0.828125 -10.875 C 0.828125 -11.65625 1.035156 -12.25 1.453125 -12.65625 C 1.867188 -13.0625 2.460938 -13.265625 3.234375 -13.265625 L 5.09375 -13.265625 C 5.863281 -13.265625 6.453125 -13.0625 6.859375 -12.65625 C 7.273438 -12.25 7.484375 -11.65625 7.484375 -10.875 Z M 7.484375 -10.875 "/></g></g></g><g fill="#004aad" fill-opacity="1"><g transform="translate(158.536388, 44.060077)"><g><path d="M 0.828125 -2.390625 L 0.828125 -9.21875 C 0.828125 -10 1.03125 -10.59375 1.4375 -11 C 1.851562 -11.40625 2.445312 -11.609375 3.21875 -11.609375 L 5.078125 -11.609375 C 5.859375 -11.609375 6.445312 -11.40625 6.84375 -11 C 7.25 -10.59375 7.453125 -10 7.453125 -9.21875 L 7.453125 -2.390625 C 7.453125 -1.617188 7.25 -1.023438 6.84375 -0.609375 C 6.445312 -0.203125 5.859375 0 5.078125 0 L 3.21875 0 C 2.445312 0 1.851562 -0.203125 1.4375 -0.609375 C 1.03125 -1.023438 0.828125 -1.617188 0.828125 -2.390625 Z M 3.640625 -2.140625 L 4.703125 -2.140625 C 5.148438 -2.140625 5.375 -2.359375 5.375 -2.796875 L 5.375 -8.796875 C 5.375 -9.242188 5.148438 -9.46875 4.703125 -9.46875 L 3.640625 -9.46875 C 3.203125 -9.46875 2.984375 -9.242188 2.984375 -8.796875 L 2.984375 -2.796875 C 2.984375 -2.359375 3.203125 -2.140625 3.640625 -2.140625 Z M 3.640625 -2.140625 "/></g></g></g><g fill="#004aad" fill-opacity="1"><g transform="translate(166.821537, 44.060077)"><g><path d="M 7.765625 -11.609375 L 9.953125 -11.609375 C 10.171875 -11.609375 10.28125 -11.492188 10.28125 -11.265625 L 10.28125 -0.328125 C 10.28125 -0.109375 10.171875 0 9.953125 0 L 8.40625 0 C 8.1875 0 8.078125 -0.109375 8.078125 -0.328125 L 8.078125 -6.84375 L 7.953125 -6.84375 L 6.40625 -0.28125 C 6.34375 -0.09375 6.21875 0 6.03125 0 L 5.0625 0 C 4.875 0 4.75 -0.09375 4.6875 -0.28125 L 3.140625 -6.84375 L 3.015625 -6.84375 L 3.015625 -0.328125 C 3.015625 -0.109375 2.90625 0 2.6875 0 L 1.15625 0 C 0.9375 0 0.828125 -0.109375 0.828125 -0.328125 L 0.828125 -11.265625 C 0.828125 -11.492188 0.9375 -11.609375 1.15625 -11.609375 L 3.34375 -11.609375 C 3.53125 -11.609375 3.65625 -11.515625 3.71875 -11.328125 L 5.546875 -3.921875 L 7.390625 -11.328125 C 7.453125 -11.515625 7.578125 -11.609375 7.765625 -11.609375 Z M 7.765625 -11.609375 "/></g></g></g></svg>